<?xml version="1.0" standalone="no"?>
<!DOCTYPE svg PUBLIC "-//W3C//DTD SVG 20010904//EN"
 "http://www.w3.org/TR/2001/REC-SVG-20010904/DTD/svg10.dtd">
<svg version="1.0" xmlns="http://www.w3.org/2000/svg"
 width="1225.000000pt" height="203.000000pt" viewBox="0 0 1225.000000 203.000000"
 preserveAspectRatio="xMidYMid meet">

<g transform="translate(0.000000,203.000000) scale(0.100000,-0.100000)"
fill="#000000" stroke="none">
<path d="M650 2009 c-30 -5 -157 -43 -281 -84 -125 -41 -259 -80 -298 -86
l-71 -12 0 -143 0 -144 44 0 c50 0 207 44 446 125 159 54 168 56 270 57 125 0
129 -1 425 -100 l230 -77 130 0 130 1 241 82 c368 125 426 126 762 12 249 -84
314 -100 412 -100 88 0 151 16 416 105 213 72 323 91 436 75 35 -5 151 -39
258 -75 409 -139 442 -138 858 1 l222 75 109 0 c128 0 157 -7 428 -100 316
-108 363 -107 738 22 l240 82 125 0 125 -1 240 -82 c380 -129 419 -130 776
-11 373 125 430 125 791 4 369 -124 405 -123 788 6 346 116 392 116 710 8 223
-76 348 -109 417 -109 83 0 182 24 394 96 373 126 392 126 806 -10 127 -42
243 -76 257 -76 l26 0 0 140 0 139 -42 11 c-24 6 -150 47 -281 92 l-238 80
-157 -4 -157 -5 -200 -70 c-263 -93 -261 -93 -400 -93 -139 0 -138 0 -400 93
l-200 71 -165 1 -165 0 -243 -84 -243 -83 -142 5 -142 4 -195 67 c-403 139
-442 139 -824 3 l-201 -71 -160 -1 -160 0 -135 49 c-310 111 -303 109 -450
114 -165 5 -188 0 -440 -91 l-195 -71 -150 0 -150 0 -234 82 -235 82 -151 0
-151 0 -235 -82 -234 -82 -150 0 -150 0 -221 77 c-186 65 -239 79 -327 89
-144 15 -203 4 -477 -90 l-225 -77 -145 0 -145 1 -130 46 c-71 25 -170 61
-220 79 -86 32 -98 33 -255 37 -186 4 -165 9 -475 -104 l-160 -58 -150 -1
-150 0 -208 72 c-292 102 -383 117 -537 92z"/>
<path d="M655 1513 c-11 -2 -132 -40 -269 -84 -138 -44 -281 -85 -318 -91
l-68 -11 0 -143 0 -144 43 0 c49 0 202 43 421 119 278 96 340 93 703 -31 l238
-81 135 -1 135 -1 240 82 c132 45 273 88 313 95 119 20 205 2 551 -116 269
-93 344 -90 679 23 253 86 355 108 457 96 33 -3 162 -40 286 -80 273 -90 333
-105 424 -105 91 0 151 15 424 105 124 40 253 77 286 80 101 11 204 -10 455
-94 145 -49 260 -82 300 -86 110 -11 207 9 465 98 l240 82 125 0 125 -1 246
-82 c285 -95 369 -112 483 -94 42 6 176 45 299 86 375 124 402 125 746 11 417
-138 413 -138 833 1 335 110 381 110 697 3 232 -79 349 -109 426 -109 77 0
201 32 410 105 329 114 377 114 752 -9 144 -47 273 -86 287 -86 l26 0 0 140 0
140 -27 5 c-16 3 -138 42 -273 86 -393 127 -424 127 -791 2 l-224 -76 -145 -4
-145 -4 -235 82 -235 82 -151 4 -151 5 -239 -81 c-131 -44 -269 -85 -305 -91
-113 -20 -218 -1 -456 79 -394 133 -433 133 -820 -2 l-208 -72 -160 0 -160 1
-183 67 c-247 90 -277 97 -424 97 -141 0 -157 -4 -433 -101 l-180 -64 -140 0
-140 0 -226 78 c-371 127 -421 127 -800 0 l-234 -78 -145 1 -145 0 -222 77
c-366 127 -433 127 -795 1 l-223 -77 -130 -4 c-148 -5 -156 -3 -455 103 l-165
59 -170 0 -170 0 -243 -83 -243 -84 -132 4 -132 4 -240 81 c-237 80 -242 81
-360 86 -66 3 -129 3 -140 0z"/>
<path d="M659 1010 c-31 -4 -157 -41 -280 -83 -123 -42 -259 -82 -301 -89
l-78 -12 0 -147 0 -148 38 6 c55 7 168 39 342 95 224 72 328 98 390 98 73 0
179 -27 380 -95 368 -125 413 -125 781 -1 212 71 312 96 393 96 60 0 190 -35
425 -115 301 -102 369 -101 709 15 253 85 354 106 456 95 34 -4 177 -45 320
-91 379 -124 406 -124 801 6 132 43 267 82 300 85 101 11 204 -10 455 -94 129
-44 260 -82 291 -86 106 -12 218 11 471 96 352 118 389 118 759 -6 123 -41
259 -80 301 -87 115 -17 202 0 483 94 355 119 381 119 760 -7 258 -86 358
-105 459 -87 37 7 178 49 314 94 l247 82 130 0 130 0 245 -85 245 -84 150 0
150 0 242 82 c165 56 265 85 311 89 116 11 222 -10 459 -91 120 -41 240 -78
266 -81 l47 -7 0 141 0 142 -27 5 c-16 3 -136 41 -269 85 -389 129 -424 129
-793 3 l-226 -77 -142 -4 -141 -4 -242 81 c-133 45 -276 86 -316 92 -121 18
-221 0 -480 -87 -252 -85 -355 -103 -472 -85 -37 6 -168 45 -292 88 l-225 78
-160 0 -160 0 -220 -76 c-263 -92 -325 -104 -456 -90 -76 7 -141 25 -320 85
-368 124 -413 124 -779 -2 l-225 -77 -145 1 -145 0 -235 82 -235 82 -150 0
-150 0 -145 -51 c-360 -126 -308 -114 -475 -114 l-150 1 -234 82 -235 82 -150
0 -151 0 -175 -61 c-318 -111 -288 -104 -455 -104 l-150 1 -185 67 c-253 92
-274 97 -437 97 l-139 0 -174 -61 c-318 -111 -289 -104 -450 -104 l-145 0
-227 78 c-193 67 -242 80 -325 88 -109 9 -106 9 -184 -1z"/>
<path d="M595 495 c-49 -13 -142 -42 -205 -65 -164 -60 -261 -88 -330 -96
l-60 -7 0 -148 0 -148 37 6 c66 9 213 51 398 113 311 105 367 104 731 -19 356
-121 403 -121 788 11 l241 82 120 0 120 -1 240 -81 c386 -131 429 -132 785
-12 379 128 418 128 797 -3 l238 -81 130 0 130 1 205 67 c263 87 373 116 435
116 79 0 175 -24 395 -99 346 -118 365 -118 771 14 337 110 396 111 674 15
268 -93 340 -110 454 -110 119 0 164 11 426 101 l210 72 135 1 135 0 225 -76
c282 -96 309 -102 451 -96 111 5 120 7 359 88 361 123 395 122 786 -11 187
-64 210 -70 312 -76 141 -8 181 0 467 94 346 113 372 113 760 -17 132 -44 252
-80 268 -80 l27 0 0 140 0 140 -27 5 c-16 3 -131 39 -258 80 -250 81 -282 90
-365 99 -90 11 -189 -10 -432 -90 -372 -122 -416 -122 -785 1 -369 123 -393
123 -793 -12 l-255 -86 -135 11 c-130 10 -144 14 -369 91 l-235 81 -124 0
c-147 0 -173 -6 -422 -97 l-185 -68 -170 0 -170 0 -160 58 c-284 102 -406 127
-530 107 -38 -6 -178 -46 -310 -90 -132 -43 -265 -81 -295 -84 -100 -12 -202
10 -451 94 l-236 80 -137 0 c-162 0 -183 -5 -436 -97 l-185 -67 -141 -4 -142
-4 -240 81 c-384 131 -435 131 -805 3 l-222 -77 -155 0 -155 1 -197 71 c-256
93 -273 96 -448 91 l-145 -4 -197 -71 c-242 -88 -284 -97 -435 -90 -114 5
-125 7 -323 75 -319 109 -415 122 -585 77z"/>
<path d="M768 3 c7 -3 16 -2 19 1 4 3 -2 6 -13 5 -11 0 -14 -3 -6 -6z"/>
</g>
</svg>
