<?xml version="1.0" standalone="no"?>
<!DOCTYPE svg PUBLIC "-//W3C//DTD SVG 20010904//EN"
 "http://www.w3.org/TR/2001/REC-SVG-20010904/DTD/svg10.dtd">
<svg version="1.0" xmlns="http://www.w3.org/2000/svg"
 width="1280.000000pt" height="1266.000000pt" viewBox="0 0 1280.000000 1266.000000"
 preserveAspectRatio="xMidYMid meet">

<g transform="translate(0.000000,1266.000000) scale(0.100000,-0.100000)"
fill="#000000" stroke="none">
<path d="M5735 12509 c-222 -23 -487 -62 -602 -89 -24 -5 -63 -14 -88 -20
-161 -36 -478 -124 -540 -151 -11 -4 -55 -20 -98 -34 -97 -31 -386 -145 -473
-185 -36 -16 -68 -30 -71 -30 -3 0 -109 -51 -237 -114 -706 -347 -1131 -647
-1606 -1132 -269 -275 -476 -529 -722 -884 -59 -86 -214 -329 -258 -405 -299
-515 -506 -978 -620 -1390 -73 -264 -109 -443 -160 -810 -6 -44 -15 -107 -21
-140 -5 -33 -16 -107 -24 -165 -8 -58 -28 -197 -45 -310 -35 -237 -39 -407
-15 -627 15 -130 45 -333 65 -433 4 -25 14 -74 20 -110 7 -36 16 -78 20 -95 4
-16 13 -57 20 -90 15 -68 90 -369 115 -460 9 -33 20 -73 25 -90 13 -48 47
-164 68 -235 10 -36 23 -65 28 -65 10 0 40 17 232 131 l137 82 -1 43 c-1 24
-11 96 -23 159 -26 139 -96 556 -111 660 -6 41 -15 102 -20 135 -49 329 -55
415 -55 725 0 345 13 510 65 875 8 55 13 83 39 225 45 244 143 597 232 834 59
157 73 192 101 254 15 34 28 65 28 67 0 13 165 345 218 439 34 60 62 110 62
112 0 7 159 259 218 344 676 983 1607 1737 2632 2135 830 322 1796 437 2685
320 101 -13 277 -41 367 -59 282 -54 368 -75 733 -176 230 -64 539 -182 720
-275 147 -75 589 -339 749 -448 147 -100 365 -146 687 -147 97 0 179 3 182 6
14 14 -61 132 -123 195 -125 126 -559 433 -840 596 -513 296 -1022 502 -1585
641 -171 43 -336 78 -425 92 -30 5 -82 14 -115 20 -166 29 -391 55 -660 75
-215 16 -770 19 -910 4z"/>
<path d="M8265 10685 c-271 -43 -551 -154 -806 -320 -63 -41 -114 -84 -146
-122 -57 -69 -143 -196 -143 -212 0 -7 26 -11 73 -11 71 0 261 -20 367 -39
150 -27 214 -43 495 -127 105 -31 207 -59 227 -61 39 -5 101 9 368 82 321 88
323 89 398 75 65 -13 124 -41 150 -73 7 -9 33 -62 56 -118 54 -126 81 -162
151 -193 171 -79 420 -93 905 -51 159 13 213 14 295 5 198 -22 401 -73 619
-156 85 -33 386 -180 531 -259 35 -19 68 -35 74 -35 7 0 11 21 11 53 0 39 -9
69 -35 120 -135 268 -384 585 -637 814 -246 222 -410 320 -688 409 -98 32
-335 89 -430 103 -41 7 -99 16 -129 22 -71 12 -580 11 -698 -1 -94 -10 -207 2
-413 43 -14 3 -50 10 -80 16 -30 6 -99 20 -152 31 -111 23 -241 25 -363 5z"/>
<path d="M2346 9919 c-14 -17 -26 -35 -26 -40 0 -12 65 -117 179 -287 188
-282 363 -593 471 -837 12 -27 32 -72 45 -100 167 -371 369 -921 474 -1290 40
-143 103 -382 116 -445 4 -19 15 -73 25 -120 20 -98 102 -490 130 -630 11 -52
34 -160 50 -240 43 -201 66 -322 90 -480 11 -74 25 -161 30 -192 6 -32 15 -86
21 -120 23 -133 49 -265 61 -305 21 -72 331 -256 552 -328 189 -61 473 -93
664 -74 169 16 412 74 537 128 11 4 31 13 45 19 159 68 322 155 463 248 54 35
101 64 106 64 5 0 14 -7 21 -15 6 -8 58 -45 113 -83 167 -113 483 -259 697
-321 25 -7 56 -17 70 -22 14 -4 50 -13 80 -18 30 -6 79 -15 108 -21 172 -33
446 7 692 102 214 82 355 160 506 280 76 61 150 114 162 119 27 11 31 9 97
-46 518 -431 1064 -607 1569 -504 110 22 224 57 243 73 34 30 -1003 1036
-1712 1661 -848 748 -1665 1377 -2520 1940 -234 154 -303 198 -570 360 -552
334 -1182 666 -1680 885 -66 29 -138 60 -160 70 -22 10 -80 35 -130 55 -49 20
-106 44 -125 52 -69 30 -98 41 -190 76 -36 14 -112 43 -170 65 -158 61 -536
191 -615 212 -16 5 -61 18 -100 30 -94 29 -378 110 -387 110 -3 0 -18 -14 -32
-31z"/>
<path d="M7183 9700 c-50 -12 -142 -60 -151 -78 -4 -9 -6 -189 -4 -399 l2
-383 94 -69 c52 -39 161 -123 243 -188 237 -188 445 -342 491 -365 34 -16 50
-19 75 -11 l32 9 3 349 c4 467 -13 654 -71 770 -73 147 -293 312 -482 360 -62
16 -177 18 -232 5z"/>
<path d="M2251 9317 c-17 -114 -66 -364 -111 -577 -25 -115 -86 -426 -104
-530 -17 -95 -21 -84 180 -445 12 -22 71 -125 131 -230 60 -104 125 -217 143
-250 18 -33 61 -109 95 -170 223 -396 374 -687 480 -925 21 -47 48 -108 61
-137 36 -80 317 -792 375 -948 100 -272 131 -360 136 -383 9 -37 21 -35 32 5
43 158 43 164 21 295 -12 68 -25 148 -30 178 -30 186 -112 600 -170 860 -14
63 -32 144 -40 185 -7 31 -99 394 -170 670 -10 41 -64 228 -101 350 -82 270
-286 856 -319 917 -6 10 -10 22 -10 28 0 9 -85 212 -147 350 -13 30 -36 82
-51 115 -93 209 -355 703 -381 719 -4 3 -13 -32 -20 -77z"/>
<path d="M9285 9254 c-287 -31 -455 -104 -610 -264 -56 -58 -67 -75 -55 -82 8
-5 69 -38 135 -75 107 -59 180 -105 455 -290 83 -56 158 -85 266 -104 96 -16
184 -9 424 32 30 5 100 12 156 15 91 6 104 4 144 -16 62 -32 158 -126 253
-248 94 -122 156 -187 217 -228 55 -37 65 -40 210 -59 167 -22 281 -41 465
-76 353 -68 678 -182 868 -305 39 -26 105 -80 146 -122 53 -53 84 -77 110 -83
24 -5 38 -4 44 4 4 7 6 64 4 127 -6 136 -22 192 -107 365 -191 389 -367 617
-603 777 -221 150 -352 217 -587 301 -85 31 -188 70 -229 87 -61 25 -110 34
-277 55 -237 29 -283 30 -350 10 -27 -8 -70 -15 -95 -15 -25 0 -216 43 -425
95 -371 94 -459 109 -559 99z"/>
<path d="M6850 8551 c-196 -65 -195 -65 -386 -58 -99 3 -172 2 -169 -3 3 -5
47 -37 98 -71 153 -103 731 -507 842 -589 28 -20 158 -115 290 -210 248 -180
728 -539 903 -677 55 -43 157 -123 227 -178 401 -314 975 -794 1288 -1077 54
-49 102 -86 107 -83 6 3 10 30 10 60 0 29 4 87 9 127 5 40 12 105 15 144 l6
70 -187 170 c-859 777 -1522 1355 -1943 1694 -256 207 -410 320 -694 515 -88
60 -189 130 -224 157 -36 26 -68 48 -71 48 -3 0 -58 -18 -121 -39z"/>
<path d="M8350 8477 c-46 -99 -50 -142 -25 -329 27 -208 69 -294 201 -417 109
-100 468 -371 493 -371 15 0 15 487 0 583 -15 102 -46 211 -73 265 -59 114
-208 258 -326 314 -52 25 -82 33 -148 36 l-82 5 -40 -86z"/>
<path d="M9900 7894 c-69 -12 -111 -26 -189 -63 -50 -23 -168 -138 -155 -151
12 -12 130 -56 295 -110 139 -45 115 -30 543 -359 105 -80 199 -151 210 -157
19 -10 155 -39 301 -63 33 -5 100 -13 149 -17 l89 -7 91 -80 c50 -44 138 -129
196 -187 100 -103 108 -109 175 -128 234 -70 536 -141 665 -157 33 -4 73 -18
100 -35 84 -53 164 -90 195 -90 44 0 73 10 79 26 3 8 -10 61 -28 117 -52 158
-106 333 -106 345 0 5 -23 44 -50 86 -129 192 -399 360 -779 486 -108 35 -151
47 -313 84 -181 42 -326 77 -353 85 -16 5 -44 12 -62 16 -17 3 -57 24 -87 45
-187 131 -402 235 -611 296 -49 14 -303 27 -355 18z"/>
<path d="M9321 7388 c-19 -58 -22 -84 -17 -136 17 -168 107 -323 287 -497 103
-99 280 -237 291 -227 15 15 53 407 44 468 -8 64 -47 146 -97 205 -83 99 -275
222 -389 248 -90 21 -93 19 -119 -61z"/>
<path d="M12066 6142 c-2 -4 -9 -50 -15 -102 -6 -52 -18 -153 -26 -225 -15
-122 -20 -174 -45 -408 -9 -88 -25 -178 -70 -387 -34 -161 -59 -260 -70 -281
-9 -16 -3 -31 37 -87 143 -200 289 -296 350 -229 69 75 145 312 213 662 6 33
14 71 17 85 3 14 9 48 13 75 5 28 16 88 24 135 28 158 46 310 46 385 0 72 -1
75 -52 151 -65 97 -150 184 -209 212 -35 17 -64 22 -127 22 -44 0 -83 -3 -86
-8z"/>
<path d="M1110 4398 c-271 -187 -430 -305 -430 -318 -1 -48 188 -440 286 -595
148 -234 378 -485 564 -617 104 -74 317 -184 420 -217 109 -36 122 -39 225
-60 237 -49 546 -53 760 -10 28 5 75 15 105 21 156 31 366 103 568 194 29 13
55 24 58 24 3 0 48 20 101 45 52 25 100 45 106 45 10 0 277 -106 352 -140 391
-177 731 -246 1035 -210 141 17 226 34 435 90 161 42 338 120 590 258 39 21
89 46 112 55 l42 17 218 -86 c322 -127 599 -214 808 -255 100 -20 452 -17 568
5 172 31 353 83 442 126 62 30 391 160 406 160 9 0 65 -21 125 -46 60 -25 118
-49 129 -53 11 -5 31 -13 45 -18 14 -6 36 -15 50 -20 14 -6 36 -15 50 -21 204
-88 485 -162 700 -183 125 -13 351 -7 440 11 473 95 933 324 1215 605 137 137
228 277 275 426 18 54 92 205 156 316 12 21 15 35 9 41 -6 5 -142 98 -303 206
l-293 198 -52 -40 c-100 -75 -423 -289 -497 -330 -144 -78 -317 -137 -490
-167 -125 -22 -392 -23 -515 -1 -367 64 -683 234 -989 530 l-79 77 -46 -44
c-208 -197 -466 -359 -698 -436 -188 -62 -271 -75 -473 -75 -170 0 -310 18
-425 54 -225 72 -338 117 -510 205 -99 51 -239 132 -372 215 -21 13 -27 10
-100 -62 -135 -133 -251 -215 -417 -293 -161 -77 -284 -114 -481 -147 -105
-17 -512 -17 -620 0 -190 31 -314 93 -630 317 -137 97 -229 155 -246 155 -6 0
-48 -26 -92 -59 -210 -150 -494 -321 -535 -321 -7 0 -20 -4 -30 -10 -9 -5 -48
-18 -87 -29 -343 -96 -709 -95 -1055 5 -149 43 -263 112 -510 309 -197 158
-280 215 -309 215 -11 0 -61 -28 -111 -62z"/>
<path d="M8815 1986 c-57 -30 -212 -115 -265 -144 -150 -82 -275 -145 -326
-162 -359 -124 -876 -128 -1231 -11 -104 34 -124 43 -353 153 -215 104 -247
118 -276 118 -31 0 -98 -28 -310 -131 -243 -117 -283 -135 -368 -163 -204 -69
-710 -84 -1021 -31 -176 30 -322 90 -545 222 -78 46 -227 129 -252 140 -23 10
-35 8 -95 -21 -37 -18 -126 -68 -197 -111 -168 -101 -300 -169 -356 -183 -99
-26 -341 -81 -440 -101 -167 -34 -200 -42 -200 -51 0 -8 174 -141 310 -236
171 -120 417 -273 595 -369 128 -70 426 -215 440 -215 2 0 30 -12 61 -26 90
-41 278 -112 424 -160 127 -42 415 -126 470 -137 14 -2 77 -16 140 -30 281
-62 482 -92 830 -122 206 -18 841 -21 1044 -5 484 38 822 93 1176 192 113 31
372 113 405 127 11 5 47 19 80 32 309 117 661 291 1020 504 213 126 562 361
569 382 2 10 8 34 11 55 9 46 19 43 -250 83 -142 22 -297 61 -420 105 -231 84
-251 94 -380 185 -139 98 -203 136 -232 134 -10 -1 -36 -11 -58 -23z"/>
</g>
</svg>
